<?xml version="1.0" encoding="UTF-8"?> <!-- Creator: CorelDRAW X7 --> <svg xmlns="http://www.w3.org/2000/svg" xmlns:xlink="http://www.w3.org/1999/xlink" xml:space="preserve" width="200mm" height="130mm" style="shape-rendering:geometricPrecision; text-rendering:geometricPrecision; image-rendering:optimizeQuality; fill-rule:evenodd; clip-rule:evenodd" viewBox="0 0 20000 13000"> <defs> <style type="text/css"> <![CDATA[ .fil0 {fill:#2B2A29;fill-rule:nonzero} ]]> </style> </defs> <g id="Слой_x0020_1"> <metadata id="CorelCorpID_0Corel-Layer"></metadata> <g id="_2226518412064"> <path class="fil0" d="M9303 8273c-17,-9 -34,-17 -56,-22 -125,-30 -258,-43 -387,-56 -86,-13 -176,-21 -267,-30 -103,-8 -206,-21 -310,-30 -60,-4 -120,-8 -185,-17l-322 -26c-121,-13 -246,-21 -370,-30l-172 -13c-74,-4 -142,-13 -215,-17 -91,-4 -181,-9 -272,-17 -154,-9 -309,-22 -469,-26 -154,-9 -309,-13 -468,-13 -568,-9 -1136,-13 -1709,21 -120,5 -245,13 -370,22 -198,13 -395,30 -593,47 -198,18 -400,43 -598,65 -61,8 -121,8 -181,17 -56,4 -103,-9 -125,-69 -21,-13 -17,-30 -13,-51 5,-18 13,-35 22,-52 8,-26 26,-52 34,-82 17,-51 39,-107 65,-159l38 -77c52,-112 108,-224 160,-336 56,-116 116,-228 172,-344 94,-190 185,-379 275,-568 13,-26 26,-47 34,-69l78 -168c56,-116 103,-236 155,-353l39 -86c17,-38 38,-73 51,-107 39,-91 73,-185 116,-271 18,-39 39,-73 48,-116 13,-74 51,-142 77,-216l26 -43c4,-12 13,-25 13,-38 4,-52 30,-104 56,-147l0 0 0 -4 -5 0c9,-17 18,-39 26,-56l13 -39 0 5c0,-26 9,-43 22,-60l13 -61c21,-60 43,-120 68,-176 5,-22 13,-35 22,-52 4,-17 4,-30 13,-43 21,-73 43,-142 69,-211 4,-17 17,-30 26,-47 0,-21 4,-39 8,-56 22,-82 47,-159 73,-236 9,-26 22,-52 35,-78l-5 0 26 -103c13,-52 30,-108 48,-159 12,-56 34,-112 47,-168 4,-47 21,-95 30,-142 9,-17 13,-35 17,-52 17,-38 26,-77 35,-120 8,-60 17,-125 30,-185 13,-95 21,-190 21,-284 -4,-39 -8,-82 -17,-121 -4,-30 -17,-60 -43,-77 -9,-9 -22,-9 -34,-13 -5,17 -5,30 -5,43 -4,26 -4,56 -8,82 -22,146 -48,292 -91,434 -8,35 -17,69 -25,104l-91 322c-56,172 -112,344 -163,517 -39,133 -86,258 -134,387 -26,73 -51,150 -81,228 -18,51 -39,103 -56,155 -22,64 -43,124 -69,185 -39,94 -78,185 -112,275l-78 181c-25,64 -51,133 -81,198l-129 284c-82,185 -168,370 -250,555 -64,133 -129,266 -194,400l-103 215c-51,99 -99,202 -146,301 -34,65 -69,129 -99,194 -69,146 -146,288 -207,439 -30,73 -60,150 -77,228 -9,25 -9,51 -9,77 -4,52 22,90 69,116 65,39 138,60 211,65 78,4 151,4 228,0l499 -52c164,-17 323,-34 486,-47 172,-13 349,-26 525,-35 194,-8 392,-17 585,-21 125,-4 250,-4 375,-9 185,-4 374,-4 559,0 224,9 452,9 676,17 133,0 262,9 395,13l26 0c108,9 215,13 319,18 99,8 193,8 288,17 138,8 275,21 413,30l176 13c82,4 164,8 246,17 129,9 262,22 391,30 60,4 125,9 185,17 90,9 185,18 275,30 91,9 177,18 267,31 22,0 43,4 60,0 13,0 26,-9 39,-13 9,-5 9,-22 0,-26zm-5305 -4535c0,52 -8,73 -30,116 4,-39 17,-73 30,-116zm-64 224c0,-26 4,-52 21,-69 4,26 -4,47 -21,69 0,30 -9,56 -18,81 -68,198 -133,392 -206,586 -69,189 -142,374 -220,563 -120,301 -258,598 -391,895l-207 435c-12,17 -25,38 -38,56l26 -69c94,-207 193,-413 288,-620 176,-391 340,-787 495,-1192l232 -645c9,-30 26,-60 39,-90zm-95 -22c-4,9 -9,22 -13,30l13 -30zm-125 370l0 30c-8,9 -17,18 -26,22 5,-22 9,-39 26,-52zm-826 1958c9,-56 39,-108 69,-155 9,-26 17,-52 30,-73 215,-465 409,-934 594,-1411l64 -168c9,-22 13,-39 30,-56 0,0 0,-4 0,-4l5 0c0,-13 4,-26 8,-35l0 35c5,0 9,0 13,4l-13 30c-4,9 -4,17 -8,22 0,4 0,8 0,12l-5 0c-4,9 -4,18 -8,26 -4,9 -9,22 -13,35l-13 34c0,22 -9,39 -21,56 -5,34 -13,65 -35,95 -17,73 -43,142 -82,206 0,22 -8,43 -21,60 -4,22 -9,39 -26,56l4 0c-13,52 -30,99 -60,138 0,26 -8,43 -26,60 -4,9 -4,17 -8,22 0,26 -9,43 -26,60 -4,0 -9,-4 -13,-4 4,4 9,4 13,4l4 0c-4,30 -17,56 -39,82 -4,-5 -8,-5 -12,-5 4,0 8,5 12,5l5 0 -26 56c-4,8 -9,17 -13,21 0,0 0,5 0,5 -4,8 -9,12 -13,21l-8 34c-5,9 -9,13 -13,22l-13 26c-5,17 -13,39 -22,56 -4,8 -8,17 -13,21 0,0 0,5 0,5 -4,8 -4,12 -8,21l0 -21c0,0 0,0 0,0l-13 21c-9,17 -17,39 -26,56l0 9c0,-5 4,-5 4,-9l0 26c-4,4 -8,4 -13,0 -17,21 -13,51 -25,82 0,4 -5,12 -9,21 -4,9 -9,17 -13,22l0 4c0,0 0,0 0,0l-13 21c0,-8 0,-13 0,-21l0 -4c-4,8 -4,17 -8,25l-26 56c-5,9 -9,18 -13,26l4 0c4,0 4,0 9,0l-13 22c0,-9 4,-13 4,-22 -4,9 -9,13 -9,22 -12,17 -21,34 -30,47 -13,17 -21,34 -30,47 -17,52 -34,108 -73,151 -4,8 -4,13 -8,21l-9 13c4,-4 4,-8 4,-13 5,-8 9,-17 13,-21zm792 -1833c4,0 4,0 8,0l0 -34c-4,0 -4,0 -8,0l-5 4c0,8 0,17 0,30l5 0zm-13 34l8 0c0,-4 5,-8 5,-12 0,-5 0,-13 0,-22l-13 34zm-13 26l13 0c0,-8 0,-17 0,-26l-13 26zm0 -4c-4,13 -9,26 -13,39l13 0c0,-13 0,-22 0,-35l0 -4zm-13 34c-4,13 -4,26 -9,39l9 0c0,-13 0,-21 0,-34l0 -5zm-34 95l13 0c0,-13 0,-21 0,-34l-13 34zm-22 95c-4,-5 -8,-5 -13,-5 5,0 9,5 13,5zm-103 266c-4,-4 -9,-4 -13,-4 4,0 9,4 13,4zm-95 194l-4 4c4,0 4,-4 4,-4zm-129 306c4,0 9,0 13,0l0 -5c0,-8 0,-13 0,-21l-13 26zm-34 77c4,0 8,0 13,0l0 -22c-5,9 -9,18 -13,22zm-13 21c4,0 8,5 13,5l0 -26c-5,9 -9,17 -13,21zm-35 87l5 0c0,0 0,-5 0,-5l0 5c4,0 4,0 8,0l0 -5c0,-8 0,-13 0,-21l-13 26zm-30 103c-4,-5 -4,-13 -4,-17 -4,4 -4,12 -9,17l13 0zm-60 103c4,0 9,0 13,0l0 -21c-4,4 -9,12 -13,21zm-13 26c4,0 9,0 13,0l0 -4c0,-9 0,-13 0,-22l-13 26zm-288 563c26,-47 43,-103 82,-146l-13 48c-30,60 -56,116 -86,176l-30 39c4,-43 30,-78 47,-117zm34 185c0,-17 9,-30 22,-38 0,17 -5,30 -22,38zm-81 177c12,-60 25,-82 60,-125 -9,47 -30,78 -60,125zm-35 73c-4,0 -4,0 -4,-4l0 -5c4,5 4,5 4,5l0 4zm-129 17l4 -4 0 4c-4,5 -4,5 -4,5l0 -5zm86 73c-9,26 -21,48 -39,65 5,-26 13,-47 39,-65zm-168 91l5 -5 0 5 -5 4 0 -4zm39 159c0,-4 4,-13 9,-22 4,-4 8,-12 13,-21l12 -26c5,-4 5,-13 9,-21 4,-9 9,-18 13,-22 -4,9 -9,13 -9,22l-13 25c-4,9 -8,18 -12,26l-13 17c0,9 -5,18 -9,26 -4,5 -9,13 -13,22l13 -26zm-73 -90l4 0c-4,8 -8,17 -13,21 5,-4 5,-13 9,-21zm-232 473l4 0 0 4 -4 0 0 -4zm-48 107c0,0 5,0 5,0l-13 22c4,-9 4,-17 8,-22zm65 125c0,-30 13,-51 26,-82 4,35 4,39 -26,82zm-112 91c-9,25 -13,51 -17,73 -13,4 -26,4 -35,8 -4,-4 -4,-8 -4,-13l0 -4c13,-82 39,-159 86,-232l-39 125c9,12 13,30 9,43zm47 103l0 -13c9,-60 26,-121 60,-172l0 13c-12,60 -30,120 -47,180 -13,5 -13,-4 -13,-8zm4057 -1682c9,-18 31,-13 35,-35 4,-17 -22,-21 -30,-39l0 -4c0,-21 -30,-26 -52,-26 -13,0 -26,0 -34,5 -138,34 -35,38 -478,94 -64,9 -125,9 -189,5 -26,0 -43,-9 -48,-39 -12,-48 -43,-82 -73,-116 -17,-22 -43,-26 -56,13 -8,38 -25,77 -38,116 -30,94 -69,189 -121,275 -64,103 -142,194 -236,275 -13,9 -26,22 -39,26 -17,5 -30,-4 -26,-17 0,-26 4,-52 13,-73 21,-99 65,-185 103,-275 22,-43 48,-87 73,-125 35,-56 74,-112 108,-164 13,-21 17,-43 21,-64 0,-26 -17,-39 -30,-48 -17,-8 -30,0 -38,9 -13,9 -22,17 -31,26 -38,47 -81,94 -120,146 -69,99 -133,202 -181,314 -17,43 -34,82 -47,121 -26,90 -13,172 52,241 25,30 60,51 99,56 68,8 120,-31 176,-61 4,-4 4,-4 4,-8 17,-35 48,-56 73,-82l0 4 13 -13c0,-4 5,-8 9,-13 21,-25 52,-43 64,-77 0,-4 5,-9 9,-13 30,-30 47,-64 69,-103 26,-56 52,-112 73,-172 4,-13 13,-26 17,-39 5,-9 13,-13 22,-9l26 13c47,30 99,43 159,43 90,5 185,-8 275,-25 172,-31 172,-48 340,-104 13,-4 26,-4 43,-8 13,-5 26,-18 34,-30l-43 0zm-1282 580c-4,0 -8,0 -8,0l-22 0c5,-13 17,-21 26,-25 4,0 9,-5 17,-5 0,0 0,5 -4,9l21 0c-4,4 -12,8 -17,8l-13 13zm35 56c-5,0 -5,0 -9,5 0,-5 4,-9 4,-9 26,-30 56,-52 86,-73 -12,39 -43,64 -81,77zm2314 -1075c0,-5 5,-9 5,-9 0,-9 0,-13 0,-17l-17 -13c-43,-26 -86,-22 -134,9 -17,8 -34,21 -51,38 -61,56 -121,112 -177,172 -60,69 -129,142 -189,211l-155 181c-39,43 -73,90 -112,133 -56,69 -112,142 -163,211 -31,30 -56,65 -82,95 -4,8 -9,8 -13,13 -17,-9 -13,-22 -13,-35 9,-90 13,-176 26,-262 17,-91 30,-181 43,-276 8,-47 17,-99 21,-146 5,-43 -8,-77 -47,-99 -43,-21 -56,-17 -69,39 -21,73 -39,151 -56,228 -30,112 -47,224 -56,336 -8,94 -13,185 -17,275 -4,64 13,116 56,159 39,39 112,43 159,-9 35,-30 65,-68 99,-107 5,-9 13,-17 17,-30 18,-26 39,-43 61,-65l129 -168c13,-12 21,-30 30,-43 4,-12 13,-25 26,-30 4,-8 8,-17 13,-21 4,-4 4,-4 8,-9l13 -21c0,8 -4,13 -9,21 9,-8 18,-17 26,-30 -4,4 -8,4 -13,9l13 -26c22,-22 39,-43 56,-65 5,-8 9,-13 13,-21l0 21c0,-8 4,-13 4,-21 5,0 9,-4 13,-9 0,-13 5,-21 18,-26 4,-12 12,-21 25,-30 5,-8 13,-17 22,-30 26,-39 60,-77 95,-116 8,-9 17,-13 30,-21 0,-9 4,-13 8,-22 0,9 5,13 5,17l0 -17c12,-9 25,-22 38,-39 18,-26 35,-47 56,-69 35,-43 86,-73 116,-124l0 -5c39,-30 78,-60 112,-90 13,-13 22,-22 35,-34l0 -9c-9,0 -13,-4 -18,-4zm-675 602c0,-13 9,-21 21,-30 22,-39 56,-69 87,-103 8,-18 21,-30 38,-35 0,-13 9,-26 22,-30 4,-17 17,-30 34,-39 5,-17 13,-30 30,-38l35 -39c8,-13 21,-22 34,-34 17,-35 47,-61 73,-87 56,-64 108,-116 147,-137 -5,21 -5,21 -35,56 -13,21 -30,38 -51,47 -5,4 -9,4 -9,9 -9,21 -22,34 -43,47l0 -4c0,0 -4,4 -4,4l-5 0c0,17 -13,30 -26,39l-8 0c0,17 -13,26 -26,38 4,-8 4,-17 9,-21 -9,4 -13,9 -22,9 0,8 0,12 -4,21 4,-4 8,-4 13,-4 -9,17 -22,30 -39,43 0,-9 4,-13 4,-22 0,0 -4,0 -4,0l-13 22c4,0 9,4 9,4 -5,9 -9,13 -17,22 4,-9 4,-13 4,-22l-17 13c-5,4 -9,13 -13,21 4,0 8,5 13,5l-22 21c4,-8 4,-17 9,-26 -9,5 -17,9 -22,13l-13 26c5,0 9,0 13,5 -8,4 -13,12 -17,17 0,-9 4,-13 4,-22 -4,5 -13,9 -21,13 0,9 -5,13 -5,22 5,0 9,-5 13,-5 -8,13 -17,22 -25,30 0,-4 4,-12 8,-21 -4,0 -8,4 -13,4 -4,5 -8,13 -8,22 0,0 4,4 8,4 -8,9 -17,13 -21,22 0,-9 4,-18 8,-26 -8,8 -13,13 -21,17 0,4 0,9 -4,17 4,-4 8,-4 12,-4 -8,8 -17,21 -25,34 0,-8 4,-13 4,-21 -4,4 -13,13 -17,21 0,0 4,5 8,5 -8,8 -17,12 -21,21 0,-9 4,-13 8,-21l-25 30c4,0 8,-5 13,-5 -9,9 -13,18 -18,26 0,-8 5,-17 5,-21l-31 17c0,9 0,13 -4,21 4,0 9,0 13,-4 -4,9 -9,17 -13,22l0 -18c-4,0 -13,5 -17,9 0,4 -4,13 -4,17l13 0c-5,9 -9,13 -18,22 5,-9 5,-13 5,-22 -5,5 -13,9 -22,9l26 -26zm585 -525c-168,159 -318,340 -465,516 -142,168 -275,336 -404,508 -17,26 -39,47 -56,69l-21 21c-5,-4 -5,-4 -5,-8 5,-4 9,-13 13,-22 228,-297 465,-589 710,-873 65,-69 125,-138 194,-198 13,-13 26,-30 47,-34 0,13 -9,17 -13,21zm-202 95l0 13c4,-5 4,-13 4,-18 0,5 -4,5 -4,5zm-757 925l0 4 -5 0 -8 0c-5,4 -5,9 -5,13 0,0 0,-4 0,-9l-12 22c-5,0 -9,0 -13,-4 0,-5 0,-9 4,-13 90,-116 181,-233 275,-353l9 -9c9,-8 17,-17 21,-26 9,-12 18,-21 26,-30 13,-25 30,-47 60,-64 -4,8 -4,13 -4,21l13 0c-9,9 -13,22 -26,26 -4,13 -13,22 -21,26l0 4c0,0 -5,0 -5,5l-21 21c-4,13 -9,22 -22,30 -8,9 -12,17 -21,30 -9,9 -17,18 -22,26 -8,13 -13,22 -25,30 -5,9 -9,22 -22,26 -9,9 -13,13 -17,22l-13 0c4,8 0,17 -4,25l-22 22c0,4 -4,4 -4,9l-4 0c0,8 -5,12 -13,17 4,-5 8,-13 8,-22 -8,13 -13,22 -21,30l8 0c-4,5 -8,9 -8,13 0,5 -5,5 -5,9l-4 0c-4,8 -8,17 -17,26 -4,13 -13,21 -22,25 0,0 0,5 0,5l-4 0c-4,8 -9,13 -13,17l-8 0c0,13 -5,17 -13,26zm322 -422l13 0c0,-4 0,-13 0,-17l-13 17zm-25 22c-5,4 -5,13 -5,17 5,-4 9,-4 17,-4l0 -5c0,0 5,0 5,-4 0,-4 0,-9 0,-17l-17 13zm-22 30c-4,4 -4,8 -9,13l-12 13c-5,8 -5,13 -9,17l21 -9c0,-8 0,-13 5,-17l17 -13c0,-4 4,-13 4,-17l-17 13zm-34 60c4,-4 4,-13 4,-17 0,4 -4,13 -9,17l5 0zm142 -17c-5,4 -5,13 -5,17 5,-4 5,-13 5,-17zm-160 30c-4,4 -4,9 -8,17l4 -4c0,-4 0,-9 4,-13zm-34 47c0,0 4,0 9,0l0 -17c-5,4 -5,9 -9,17zm-26 26l13 0c0,-4 0,-13 0,-17l-13 17zm-39 47c5,0 13,0 18,0l0 -21c-5,8 -9,13 -18,21zm-17 31l5 0c4,0 4,-5 4,-5l4 -4c0,-4 0,-9 0,-13l-13 22zm-30 47c4,0 4,-4 4,-4 0,0 0,0 5,-5l0 -13c-5,9 -9,13 -17,22l8 0zm-26 26l9 0c0,-5 0,-13 4,-18l-13 18zm-26 30c5,0 5,0 9,0l4 -5c0,-4 0,-8 0,-17l-13 22zm-30 47l5 -4c0,-5 4,-9 4,-17 0,8 -4,12 -9,21z"></path> <path class="fil0" d="M8679 6251c-17,-22 -38,-22 -64,-18 -22,9 -39,18 -61,31 -34,17 -68,34 -98,51 -125,69 -246,146 -366,224 -155,99 -306,202 -461,305 -98,65 -197,134 -301,198 -56,39 -116,73 -180,104 -26,12 -56,25 -86,30 -18,4 -31,0 -35,-22 -4,-26 -4,-56 0,-82 4,-47 13,-90 26,-133 9,-39 13,-73 34,-108l0 -12c5,-9 5,-18 9,-26 34,-82 82,-164 129,-245 9,-18 22,-35 34,-48 18,-21 35,-34 56,-34 82,-13 147,-56 216,-99 68,-47 129,-108 185,-168 73,-77 68,-129 8,-189 -39,-39 -82,-43 -133,-26 -30,13 -65,30 -95,47 -60,48 -120,95 -172,151 -17,26 -39,47 -65,64 -38,26 -68,61 -86,104 -4,17 -12,30 -21,43 -60,86 -116,172 -159,262 -52,108 -95,215 -112,331 -17,99 4,181 69,250 47,47 103,64 172,60 56,-4 107,-21 159,-47 90,-47 181,-99 267,-159 51,-35 103,-69 155,-108l4 0c34,-30 69,-60 103,-86 73,-60 151,-112 224,-168 82,-56 172,-103 249,-163 43,-26 91,-52 134,-82 94,-65 193,-125 301,-163 4,-35 -22,-52 -39,-69zm-1200 -151l13 -13c21,-26 47,-39 77,-51 0,0 0,4 5,8 -5,4 -5,9 -5,13 -8,9 -21,13 -34,22 -9,8 -22,17 -35,21l-13 9c-4,4 -8,8 -8,13l0 -13c-4,0 -9,0 -13,0l13 -9zm146 -13c-56,39 -103,78 -159,116 39,-56 103,-103 159,-116zm-138 22c0,-5 5,-5 5,-9 0,0 4,0 8,0l-8 -13c0,4 0,9 -5,13l-8 0c0,4 0,4 0,9l8 0zm-21 4c0,0 0,4 0,9l-13 0c4,-5 9,-9 13,-9zm21 108l0 -5c5,0 9,-4 9,-8l4 0c26,-39 69,-65 112,-82 5,-4 9,-4 13,0 4,4 4,13 0,17 -30,30 -56,60 -86,86 -17,17 -39,30 -60,47 -22,22 -47,35 -78,39 22,-39 52,-69 86,-94zm5 -5l-5 0c0,0 5,5 9,5l-4 -5zm129 56c0,-4 4,-8 8,-8 0,4 -4,4 -8,8zm-108 30c-13,13 -30,26 -51,22 21,-22 47,-35 69,-52 0,13 -5,26 -18,30zm82 -8c-13,21 -34,38 -60,43 0,4 -4,8 -9,8 5,0 5,-4 9,-8 17,-22 39,-35 60,-48 0,0 4,-4 9,-4 0,4 -5,4 -9,9zm964 0c4,0 8,0 8,4 0,0 -4,4 -4,4l-9 0c0,0 5,-4 5,-8zm-9 13c-4,4 -13,8 -17,8 4,-8 13,-8 17,-8zm-21 8c-5,9 -13,9 -22,9l22 -9zm-973 633c13,-13 30,-26 48,-35 13,-13 25,-21 43,-30 21,-17 38,-34 60,-43 30,-26 64,-47 95,-64 12,-18 30,-26 47,-35 13,-13 30,-26 47,-30 13,-13 30,-26 48,-30 25,-26 51,-43 81,-56 13,-13 30,-26 48,-30 13,-13 21,-22 34,-22 26,-25 52,-43 82,-56 13,-12 21,-17 39,-21 8,-13 21,-17 34,-22 30,-30 64,-47 103,-64 9,-13 22,-17 39,-22 4,-13 17,-17 30,-21 13,-13 22,-17 39,-22 8,-13 21,-17 30,-21 0,4 0,8 4,13 -8,8 -17,13 -26,21l-8 -8c0,4 0,4 -5,8 -4,9 -12,13 -21,22 -13,8 -26,13 -34,21l-39 22c-9,8 -22,13 -35,21l5 0c-13,5 -26,13 -39,22l4 0c-13,4 -26,13 -38,21 0,-4 -5,-4 -9,-8l0 8c-9,9 -17,13 -26,22l-8 -9c0,5 0,5 -5,9 -4,8 -13,13 -21,21l-13 13c-13,5 -22,13 -35,17l-13 0c-4,9 -12,18 -21,22 -4,0 -4,-4 -9,-9 0,5 0,9 -4,13l13 0c-4,0 -9,5 -13,9 -9,4 -13,8 -21,8 -5,0 -5,-4 -9,-4l0 4c0,0 4,0 9,5 -5,0 -9,4 -13,8 -9,9 -22,18 -35,22l-13 13c-13,4 -21,13 -34,17l-13 13c-9,4 -13,9 -22,9 -4,0 -4,-5 -8,-5l0 5c0,0 4,0 8,4 -4,0 -8,4 -12,8l-13 13c-9,0 -13,5 -22,9l-13 13c-8,8 -21,17 -34,21 -5,0 -9,5 -13,9 -9,13 -22,21 -35,21l-12 13c-5,0 -9,5 -9,9l0 -4 -4 0 0 4c-9,13 -22,17 -35,21l-4 0 0 5 -4 4 -5 -4 0 8c-8,9 -21,18 -34,22 -4,0 -9,4 -9,9 0,-5 0,-9 0,-9l-13 9c5,0 5,0 9,0l-13 12c-4,0 -13,5 -21,9 -5,4 -5,9 -9,9l0 -9c-4,4 -9,9 -13,9 0,4 0,4 0,4l9 0c0,0 -5,4 -9,9l0 -9c-4,4 -9,4 -13,9l-17 4c0,4 -4,4 -4,8 -5,0 -9,5 -13,9l13 0c-5,4 -9,9 -13,9l0 -9c-5,4 -9,9 -13,13l-17 0c-5,9 -13,13 -18,21 -8,0 -21,5 -30,9 9,-17 26,-26 43,-34zm1059 -611c4,-9 13,-9 17,-9 -4,0 -13,4 -17,9zm-35 21l-26 13c-4,9 -12,13 -25,22 -73,47 -151,94 -224,137 -9,9 -17,9 -26,13 -26,26 -51,43 -82,56 -94,69 -185,134 -284,194 -47,34 -90,73 -137,107 -65,43 -125,91 -190,134 -21,13 -38,30 -64,34 -9,13 -22,22 -35,22 -8,13 -21,17 -34,21 9,-8 22,-17 34,-21 9,-13 18,-22 35,-22 9,-17 30,-30 47,-43 99,-69 198,-142 297,-215l43 -26c69,-56 146,-107 224,-159 17,-13 39,-22 56,-34 26,-22 56,-39 86,-52 77,-60 163,-108 249,-159 9,-9 22,-9 30,-13 9,-9 18,-9 26,-9 9,-13 18,-21 30,-21 -4,13 -17,17 -30,21zm-1088 9c8,-9 17,-17 30,-17 -4,13 -17,17 -30,17zm697 163c4,0 8,0 13,0l-9 -8c0,4 0,4 -4,8zm-164 108c5,0 9,0 13,0l-8 -9c0,5 0,5 -5,9zm-94 64l13 0c0,-4 0,-4 0,-8l-13 8zm-35 22c5,0 9,0 13,0l-8 -9c0,5 0,9 -5,9zm-43 26l0 4c0,0 4,0 9,4 -5,-4 -5,-8 -9,-8zm-4 8l0 9c4,-4 4,-4 0,-9zm-35 30c-4,0 -4,-4 -8,-4 4,4 4,4 8,4zm-21 9c4,0 4,0 9,4l0 -8c-5,0 -5,4 -9,4zm-95 69c5,0 5,0 9,0l0 -13c0,4 -4,9 -9,13zm-47 30l9 0c0,0 -5,-4 -5,-9 0,5 -4,9 -4,9zm-142 86c-4,13 -17,22 -30,22 8,-13 17,-18 30,-22zm-47 34c-9,13 -18,18 -30,18 8,-9 17,-18 30,-18zm-43 31c0,-5 4,-9 8,-9 -4,4 -8,4 -8,9z"></path> <path class="fil0" d="M14750 2021c-39,-34 -86,-47 -138,-60 -30,-9 -60,4 -86,30 -25,22 -56,48 -77,73 -73,91 -142,177 -211,267 -107,138 -206,275 -310,413 -69,95 -137,189 -206,280l-215 297c-69,99 -142,193 -211,292l-336 461c-82,111 -163,228 -245,335 -77,108 -146,220 -232,323l-164 219c-47,69 -94,138 -146,207l-297 400c-30,39 -65,73 -86,112 -77,116 -172,215 -254,323 -56,77 -120,150 -181,223l-206 233c-43,43 -86,81 -129,120 -4,9 -17,13 -30,17 -13,-34 -22,-69 -18,-107 9,-61 13,-121 31,-181 38,-142 77,-288 133,-426l13 -30c43,-112 86,-228 133,-344 9,-22 22,-35 30,-56l0 4c5,-13 5,-26 9,-34 34,-82 69,-164 103,-246l43 -77c9,-30 17,-56 39,-82l-4 0c8,-30 21,-56 43,-81 4,-22 13,-48 26,-74l90 -193c8,-17 21,-30 26,-43 8,-13 17,-22 21,-35 17,-64 52,-124 82,-185 4,-8 17,-21 26,-34l-5 4c5,-8 9,-17 13,-21 22,-13 30,-35 35,-61 -5,0 -5,0 -9,0l-8 13c0,0 0,-4 0,-4l8 -9c4,-12 13,-21 17,-34 9,-26 18,-52 31,-77 34,-74 73,-142 107,-216 13,-21 26,-43 39,-60 8,-30 21,-56 34,-86 43,-90 86,-181 125,-275 30,-60 52,-125 77,-190 5,-17 5,-30 -8,-38 -26,-22 -52,-48 -91,-48 -12,-4 -25,-4 -34,-8 -52,-17 -99,0 -142,39l-116 116c-73,77 -138,163 -211,236 -9,5 -13,13 -17,22l-185 224c-43,56 -86,107 -134,159l-245 292c-47,61 -99,121 -150,181l-108 129c-64,78 -133,159 -198,241l-232 284c-103,133 -211,262 -314,396 -108,138 -215,275 -327,417l-207 271c-120,164 -245,327 -370,491 -137,189 -271,383 -413,568 -77,99 -150,206 -224,309 -30,43 -60,82 -103,112 5,-8 5,-13 5,-17 43,-107 77,-219 129,-323 8,-12 13,-21 17,-34 34,-90 69,-181 107,-267 35,-99 91,-189 125,-288 30,-95 78,-189 116,-284 48,-103 95,-206 138,-310l142 -331c13,-34 26,-73 39,-108l-65 129c-64,147 -125,289 -185,435 -103,232 -202,465 -301,701 -69,155 -133,310 -198,465 -39,95 -73,185 -107,275 -9,18 -13,39 -31,52 -8,-13 0,-30 9,-43 60,-155 120,-310 185,-465 146,-348 297,-697 447,-1045 95,-220 194,-439 289,-663 64,-142 125,-288 185,-430l38 -77c0,-5 5,-13 13,-31l0 31c22,-31 35,-65 39,-104 -4,0 -4,0 -9,0l0 -8c5,-5 5,-5 9,-5 0,0 0,0 0,5l0 8c9,-17 22,-34 30,-51l39 -129c0,0 0,-5 -4,-5 51,-94 56,-185 68,-279 0,-9 -4,-18 -17,-18 -8,0 -21,5 -26,13 -8,9 -12,26 -17,39 -51,138 -103,275 -163,413l-168 370c-56,125 -116,250 -172,374 -78,168 -155,336 -228,504 -22,43 -39,86 -60,129 -61,138 -125,275 -185,413 -48,107 -95,215 -138,323l-142 322c-22,52 -47,104 -69,155l-77 207c-26,77 -52,155 -69,232 -9,47 -5,60 39,82l34 13c47,21 95,8 138,-35 21,-13 38,-34 51,-51 60,-74 116,-147 172,-224 95,-125 190,-250 284,-379 82,-107 159,-215 237,-322 103,-142 206,-280 314,-422 155,-198 301,-400 460,-594l177 -232c94,-121 189,-237 284,-357l142 -181c81,-95 159,-189 241,-288 51,-65 103,-129 159,-194 60,-77 125,-155 189,-236 35,-39 73,-78 108,-121 90,-108 180,-215 275,-323l323 -383c17,-21 34,-38 56,-60 8,-8 17,-21 34,-21 4,25 -13,47 -21,73 -48,90 -91,185 -138,275 -52,99 -99,198 -146,297 -39,73 -73,151 -112,224 -26,60 -56,125 -86,185 -30,60 -56,116 -82,172 -82,176 -159,353 -237,533 -4,13 -13,31 -17,43l-103 263c-39,112 -82,228 -116,340 -35,107 -56,215 -78,322 -8,56 -8,117 -8,173 4,64 34,107 90,133 17,9 34,13 52,21 43,22 90,18 137,-4 39,-13 78,-34 112,-64 69,-52 129,-108 189,-172 203,-224 396,-457 577,-697 22,-31 52,-61 77,-95l151 -207c9,-13 22,-30 34,-43 31,-43 65,-86 95,-129l35 -51c25,-39 51,-74 81,-108 48,-60 91,-120 134,-181 4,-13 13,-21 21,-30 39,-38 65,-82 95,-125 39,-55 77,-107 120,-163 5,-9 9,-17 9,-22 13,-30 34,-51 56,-73 13,-17 30,-34 39,-51 12,-26 30,-52 51,-73 9,-9 17,-18 22,-31 17,-30 38,-51 60,-77 34,-47 64,-99 103,-142l13 -17c17,-30 35,-60 56,-91 30,-47 60,-94 108,-137 0,0 4,-5 4,-9l4 0 0 -13c5,-4 5,-13 5,-17 51,-65 98,-129 146,-194 4,-13 13,-21 21,-30 22,-26 48,-51 65,-77 26,-35 47,-78 69,-112 47,-26 56,-73 86,-103 8,-13 17,-26 26,-35 8,-8 12,-17 17,-26 13,-17 21,-34 34,-51l95 -129c39,-69 99,-125 142,-190 4,-4 8,-8 13,-8 0,-9 4,-17 8,-26 5,-4 9,-4 13,0 26,-43 48,-90 91,-125 0,-8 4,-17 4,-30l4 0c0,0 0,-4 5,-4 38,-43 68,-95 111,-138 9,-8 9,-26 18,-34 43,-52 81,-112 120,-168 17,-22 34,-34 60,-39 5,22 -4,39 -13,56 -51,129 -107,254 -163,379 -35,86 -73,172 -108,258 -34,77 -73,159 -107,241l-168 404c-26,65 -56,134 -86,198 -43,116 -90,233 -138,349l-51 133c-26,69 -52,133 -78,202l-90 228c-13,39 -30,78 -43,112l-91 254c-38,108 -77,211 -111,318 -61,164 -117,332 -173,495 -21,56 -43,116 -60,172 -38,134 -82,267 -125,400 0,13 -8,26 -8,35 -13,30 -26,60 -35,90l-159 585c-30,99 -56,203 -81,306 -44,176 -78,348 -125,520 -43,177 -78,349 -116,521 -35,155 -65,310 -91,460 -13,56 -13,112 -21,168 -5,43 13,73 60,82 4,0 9,0 13,4 26,13 47,9 73,-4 30,-9 39,-26 39,-52 0,-17 0,-34 -9,-51 -4,-26 -4,-56 0,-91 4,-17 9,-34 9,-56 21,-103 43,-206 69,-309 21,-104 47,-207 68,-310 22,-90 48,-181 69,-271l39 -155c9,4 13,4 17,9 0,-18 0,-35 4,-52 5,-43 13,-82 22,-121 4,-34 17,-64 26,-99 21,-81 43,-167 69,-249 0,-17 13,-30 17,-43l26 -125c4,-21 8,-39 17,-60 21,-86 47,-172 73,-258l65 -207c43,-137 81,-275 124,-413l134 -391c43,-129 86,-254 129,-383l129 -362c47,-129 94,-262 146,-391 4,-17 17,-35 26,-52l-4 4c13,-34 17,-64 30,-98 60,-151 116,-306 180,-461 112,-275 224,-555 340,-835 117,-275 233,-546 353,-821 4,-18 17,-30 26,-48 4,-17 9,-38 17,-56l91 -223c8,-30 25,-56 38,-86l-4 0 26 -78c8,-17 17,-34 21,-51 17,-43 13,-74 -17,-104zm-198 22c0,4 0,0 -4,0 4,0 4,0 4,-4l4 0c0,4 0,4 -4,4zm-51 86c-9,8 -18,21 -26,34 -9,13 -18,26 -30,35 -18,34 -43,69 -74,94l0 -4c-8,26 -21,47 -47,60 -8,30 -30,61 -60,82 -13,30 -30,56 -60,78 -9,34 -30,60 -61,81 -8,30 -30,56 -56,82 -4,9 -8,13 -17,22 -13,30 -30,60 -60,81l0 -4c-13,34 -34,60 -56,82 -9,8 -13,17 -17,26 -17,30 -35,55 -65,77 -8,34 -30,56 -56,82 -4,8 -12,13 -17,21 -13,30 -30,60 -60,82 -13,39 -43,73 -77,103 -18,39 -43,73 -78,103 -13,44 -39,74 -69,104 -8,8 -13,13 -17,21 -17,30 -34,60 -60,82 -4,9 -9,17 -17,22 -13,30 -31,60 -61,77 -4,9 -8,13 -13,21l0 5c0,0 -4,0 -4,0l-13 21c-13,35 -30,61 -60,78 0,-5 0,-13 4,-22 -4,9 -4,17 -8,26l4 0c-21,43 -52,90 -95,129 -13,39 -38,69 -68,103 -9,5 -13,13 -18,22 -21,39 -43,73 -77,99 0,-4 4,-9 4,-17 0,4 -4,13 -8,21l4 0c-17,39 -43,73 -73,103 -5,9 -13,18 -17,22 -22,39 -44,77 -78,103 -13,43 -43,73 -73,108 -4,4 -9,13 -17,21 -5,5 -9,13 -17,22 -9,30 -31,56 -56,77 -9,9 -13,17 -18,26 -4,4 -13,13 -17,22 -8,21 -21,43 -43,60 -4,4 -8,13 -17,21 -4,5 -9,13 -13,22 -9,8 -13,17 -17,21 -9,22 -22,43 -43,56 -5,9 -13,17 -17,26l-13 22c-9,8 -18,17 -22,25l-13 0c-4,9 -4,18 -8,22 0,4 -5,9 -5,13 0,0 0,0 0,0l-13 21c-8,9 -12,18 -17,22l-21 26c-9,8 -18,21 -22,34 -8,4 -13,13 -17,22 -4,8 -9,12 -13,17 0,0 0,4 0,4l-4 0c-5,9 -9,17 -13,26l-30 30c0,0 0,4 0,4l-5 0c0,9 -4,13 -12,22l8 -22c0,0 0,0 0,0l-13 22c-30,21 -47,51 -64,77 -5,9 -9,17 -13,26l-5 0c-12,17 -30,39 -47,56l-51 60c-13,30 -31,60 -56,82 -18,30 -35,60 -65,77 13,-34 34,-55 56,-81 17,-30 34,-56 60,-82l48 -65c240,-335 481,-666 722,-998 327,-452 659,-903 986,-1355l477 -637c48,-64 99,-125 151,-189 13,-17 30,-30 43,-43 8,-9 13,0 17,8 4,13 -9,26 -21,35zm0 125l-18 25c-193,246 -378,500 -563,753 -263,358 -525,719 -788,1076l-731 1007c-90,125 -185,249 -275,370 -18,21 -31,39 -48,56 -13,26 -34,56 -60,77 -17,22 -30,48 -47,73 -43,52 -82,104 -125,160 -4,-5 -9,-5 -9,-5 0,-4 0,-4 5,-8 17,-22 30,-48 47,-69 43,-52 86,-103 125,-155 13,-30 34,-56 60,-82l73 -103c202,-280 405,-555 602,-830 138,-186 276,-375 409,-564l757 -1033c147,-202 297,-400 448,-602 34,-52 77,-99 116,-146 4,-9 13,-13 30,-30 -4,17 -4,25 -8,30zm-112 714c-22,56 -39,112 -65,168 -90,219 -185,439 -280,662l-180 448c-43,112 -86,223 -129,335l-129 332c-69,193 -142,391 -211,585l-181 512c-52,155 -103,310 -151,469 -43,124 -81,249 -120,378 -26,78 -47,159 -69,237 -69,241 -133,482 -198,723 -38,133 -73,271 -107,409 -35,137 -65,275 -99,413 -39,172 -73,344 -112,516 0,4 -4,13 -9,21 -4,-4 -4,-8 -4,-8 13,-82 26,-164 47,-241 9,-22 13,-39 18,-60 8,-74 25,-151 47,-228 21,-91 39,-181 64,-276 43,-185 91,-374 138,-559 47,-181 95,-362 146,-542 30,-112 65,-224 99,-336l86 -292c65,-203 134,-405 203,-611 90,-267 180,-530 275,-796 77,-211 159,-422 241,-633 120,-318 249,-628 378,-942 87,-207 181,-417 272,-628l30 -56c0,-22 4,-39 21,-56 4,21 -8,39 -21,56zm-3214 2676c64,-151 124,-305 193,-456 91,-202 185,-409 284,-611 147,-301 301,-607 452,-912l52 -116c8,-18 17,-35 30,-52 4,22 -9,43 -17,65l-181 387c-151,305 -301,615 -448,921 -116,241 -228,490 -327,735 -64,164 -120,327 -180,491 -22,64 -39,129 -56,193l-5 0c5,-30 9,-60 18,-90 47,-185 112,-370 185,-555zm2177 -1992c-9,9 -13,17 -17,26 4,0 4,0 8,0l4 -5c0,-8 0,-12 5,-21zm-1485 4l-17 26c-4,-13 4,-17 17,-26zm-133 13c0,4 0,4 -4,9 0,-5 0,-5 4,-9 0,0 4,0 4,-4 0,4 0,4 -4,4zm-21 17l12 -8c0,4 -4,8 -8,13l-4 -5zm258 39c8,17 -9,30 -18,43 5,-13 0,-30 18,-43zm-142 280c25,-56 56,-116 86,-172 4,-9 13,-18 21,-26 -8,30 -17,51 -30,77 0,0 4,0 4,0l9 0c-9,13 -9,5 -9,0 -17,26 -34,56 -47,82l-52 90c5,-17 9,-34 18,-51zm-134 -155c-13,26 -30,52 -56,69 -8,13 -17,26 -25,43 -5,-26 12,-35 25,-43 13,-26 35,-52 56,-69 5,-4 9,-9 13,-17 0,4 0,4 5,4l-18 13zm1480 60c5,-8 5,-17 5,-30 0,9 0,22 -5,30zm-1613 103c-4,5 -9,5 -9,9 0,-4 0,-9 5,-13 0,0 4,0 4,-4l0 8zm2242 82c0,0 0,0 4,-4l0 4c0,4 -4,4 -4,4l0 -4zm-2659 1368c73,-167 142,-340 219,-503 125,-275 258,-542 392,-813l34 -52c0,13 -4,30 -9,43 5,0 5,-4 5,-4 0,0 0,4 0,4l8 0c-4,9 -8,22 -17,35 -9,34 -26,73 -52,107l0 4c-8,13 -12,26 -17,35 -8,13 -13,26 -21,34 -5,13 -9,26 -18,35 -4,13 -8,25 -17,34 -4,13 -4,26 -13,39l-90 189c-4,13 -13,26 -21,35l0 4c0,0 0,0 -5,0l-13 34c-8,13 -13,30 -21,43 4,-13 4,-30 8,-47 -17,26 -30,56 -38,82l13 0c-5,30 -18,51 -35,77 0,0 0,4 0,4l-21 35c-5,13 -9,26 -18,39l0 8c-4,9 -12,22 -17,35 -8,13 -13,30 -21,43 -13,43 -26,86 -56,124 0,0 0,5 0,5 -9,13 -13,26 -17,34l0 9c-9,13 -13,26 -22,34 0,9 -4,13 -9,35l0 -35c-21,30 -34,60 -43,95l5 0c-17,39 -35,69 -52,107l-21 39c-13,-8 -5,-17 0,-26zm210 -1342c0,0 5,-4 0,0zm-8 9c-5,4 0,0 4,-9l4 0c0,0 -4,4 -4,4l-4 5zm430 43c4,-13 4,-22 9,-35l-5 0c-4,13 -8,22 -17,35l13 0zm1996 4c-4,30 -17,60 -38,86 8,-30 17,-56 38,-86zm-847 60l4 0 4 0 -4 -4 -4 4zm-1248 116l9 0c8,-8 13,-21 17,-34 9,-9 13,-22 17,-35l4 -4c0,-13 5,-30 9,-43 -26,39 -47,78 -56,116zm189 -103l-4 30c4,-8 9,-21 4,-30zm-4 34c0,0 0,-4 0,-4l-4 4 4 0zm1867 -4c0,4 0,4 -4,9 0,0 0,0 -4,0l8 -9zm-2439 52c8,-13 21,-26 30,-35 -9,13 -17,26 -30,35zm370 56l8 0c5,-9 5,-22 9,-35 -9,13 -13,26 -17,35zm-17 34l8 0c5,-9 5,-21 9,-34 -9,13 -13,25 -17,34zm2030 0c0,0 0,-4 5,-9 -5,5 -5,9 -5,13 -4,0 -4,5 -4,5 0,0 0,-5 4,-9zm-2048 39c5,-13 9,-26 18,-39 0,0 -5,0 -5,0l-13 39zm-481 43c12,-26 30,-52 60,-69 -13,26 -26,56 -60,69zm456 0c4,-4 4,-9 8,-9 5,-13 9,-26 17,-34 -8,8 -12,21 -21,34 0,0 0,5 -4,9zm1148 -13l5 0c0,-4 0,-13 4,-17 -4,4 -9,13 -13,17l4 0zm-1716 9c0,0 0,0 0,0l-5 4 0 -4c5,0 9,-5 5,0zm2590 51l8 -13c0,-4 0,-13 5,-17l4 0c-4,4 -4,13 -9,17 -4,5 -4,9 -4,13 0,0 -4,4 -8,4l4 -4zm-2052 22c0,0 0,-5 4,-9 -4,4 -4,4 -4,9zm-18 34l0 4c5,-12 13,-25 18,-38 -5,13 -13,26 -18,34zm1097 13l13 0c0,-9 5,-17 5,-26l-18 26zm-1114 22l17 -31c-8,9 -13,22 -17,31zm-624 -5c5,0 9,0 13,-4 -4,4 -4,9 -4,13l-9 -9zm603 52l8 0c5,0 5,-4 5,-4 0,-18 4,-26 8,-43l-21 47zm-499 -22c-9,9 -22,22 -31,35 0,0 0,0 -4,0l4 -5c9,-8 18,-21 31,-34l0 4zm2564 0l0 5 -5 0 5 -5zm-2083 56l13 0c0,-13 5,-26 5,-38 -5,12 -13,25 -18,38zm1080 -4c5,0 9,4 9,4 4,-8 4,-13 4,-21 -4,8 -8,13 -13,17zm-17 26l13 0c0,-9 0,-13 0,-22l-13 22zm942 129c5,-22 9,-39 22,-60 4,-9 4,-18 8,-30l5 4c-5,8 -9,17 -13,26l-22 60c-4,21 -4,52 -34,82 4,-35 17,-61 34,-82zm-3850 -65c0,5 4,5 4,5 0,4 0,4 -4,8 0,-4 0,-4 0,-8l0 -5zm2831 39c0,0 4,0 4,0l9 0c4,-9 4,-17 4,-21 -4,4 -9,12 -17,21zm-1076 69l9 0c8,-13 13,-26 17,-35l4 -4c0,-17 4,-26 4,-43 -17,26 -30,52 -34,82zm1063 -47l13 0c0,-9 0,-13 4,-22 -9,9 -13,13 -17,22zm-1674 60c4,-13 13,-26 30,-35 -13,9 -21,22 -30,35zm1626 0c0,0 5,-4 5,-4l0 4c0,0 4,0 8,0l0 -4c0,-5 5,-5 5,-9l0 -9c-5,5 -9,13 -18,22zm-1054 69l13 0c5,-13 9,-26 17,-39l0 -4c5,-18 5,-30 9,-39 -21,26 -30,52 -39,82zm-1759 -73c0,0 0,0 0,4l0 4c0,0 -5,-4 -5,-4l5 -4zm2813 4c-4,8 -8,13 -12,21l12 0c0,-8 0,-13 5,-21l-5 0zm-30 43l13 0c0,-9 5,-13 5,-22 -5,9 -13,13 -18,22zm-1045 69l13 0c4,-13 4,-30 8,-48 -4,18 -13,35 -21,48zm168 -30c0,0 4,0 4,0l0 -9c0,0 0,4 -4,9 0,0 -5,-5 -9,-5 0,9 4,13 9,5zm-9 -5c0,0 0,0 0,0zm-1932 9c0,4 0,8 -4,13 0,0 -4,0 -4,-5l8 -8zm3718 409c4,-5 8,-9 12,-18 5,-17 13,-38 22,-56l26 -94c21,-65 47,-125 69,-185 8,-17 17,-35 25,-52l-43 159c0,9 0,18 5,26 -5,0 -9,4 -9,4 0,-12 4,-21 4,-30 -21,35 -34,78 -47,117l4 0c-13,17 -25,34 -34,55 -4,18 -9,39 -22,56 -4,9 -4,13 -4,18 0,4 -4,4 -8,4l0 -4zm-960 -370c0,0 4,0 4,0l9 0c0,-9 4,-13 4,-22 -4,9 -13,13 -17,22zm-13 21c4,0 4,0 9,0l4 -4c0,-5 0,-13 4,-17 -8,8 -13,12 -17,21zm-21 26l17 0c0,-9 4,-17 4,-26 -8,9 -17,17 -21,26zm-1661 21l-4 5 0 -5c12,-12 21,-21 30,-34l-26 34zm-1153 -30c8,5 4,13 0,22 0,4 -4,8 -9,13 -8,-17 0,-26 9,-35zm43 78c13,-22 17,-39 21,-60l-13 0c-4,21 -8,38 -8,60zm2745 -35c0,0 0,0 4,0l0 -4c0,0 0,4 0,4l4 0c5,0 5,-4 5,-4 0,-9 4,-13 4,-17 -4,4 -13,13 -17,21zm-981 35l13 0c0,0 0,-5 0,-5 4,-17 4,-30 8,-43 -8,13 -13,31 -21,48zm-35 77l9 0c9,-8 13,-21 17,-34 0,-5 5,-5 5,-9 0,-13 4,-26 4,-39 -17,26 -30,56 -35,82zm-1729 -77c-35,60 -65,125 -82,193 39,-64 65,-129 82,-193zm-125 112c9,-26 22,-56 30,-82l13 -13c-4,47 -8,56 -43,95 -13,51 -30,90 -60,133 13,-43 30,-90 60,-133zm1007 -18c0,0 -4,5 -9,5 5,0 5,-5 9,-9l4 0c0,0 0,4 -4,4zm99 13c0,0 -4,0 -4,0l4 0zm2870 5l0 4c0,0 -5,4 -5,4l0 -4c0,-4 5,-4 5,-4zm-18 13c5,0 5,0 9,4 0,4 -4,13 -9,26l0 -30zm-2142 47l8 0c0,4 -4,13 -8,30l0 -30zm-1773 21c-21,30 -34,61 -39,91 22,-26 35,-61 39,-91zm964 39c0,0 -4,4 -9,4 0,0 5,-4 5,-8 4,0 4,0 4,-5l0 9zm903 43c0,0 0,0 0,0zm13 0l-13 0c0,4 5,9 13,0zm-1919 9l-21 47c13,-13 17,-30 21,-47zm-1062 2289l0 8 4 0c-9,17 -17,39 -26,56l4 0c-4,13 -8,22 -12,39l-18 -17c0,8 -4,17 -4,25l-4 0c4,-8 8,-17 8,-25 5,-39 22,-78 39,-121 103,-271 219,-546 340,-817 159,-362 323,-719 482,-1080l103 -220c4,-21 17,-38 30,-56 5,-21 9,-43 30,-68 -4,34 -17,51 -30,68 -4,48 -26,91 -43,130 -34,86 -73,172 -112,253 -34,74 -64,151 -99,224l-25 60c-13,30 -31,61 -43,91l-155 352c-5,9 -9,13 -13,18l4 -5 0 5c-9,30 -21,60 -43,86l4 4c-26,73 -56,151 -99,219 -4,13 -13,31 -17,43l-21 48c-5,34 -18,64 -39,90 -9,17 -13,30 -22,43l5 5c-22,68 -48,133 -82,197l0 -4c-9,17 -13,35 -22,47 0,18 -4,35 -17,48 -4,17 -8,30 -21,43 0,21 -9,43 -22,60 0,4 -4,17 -8,22 -13,8 -18,17 -18,30 0,17 -4,34 -13,51 -4,18 -8,35 -21,52 -4,0 -4,0 -4,-4zm1024 -2195c4,-17 13,-30 17,-47l-17 43 0 4zm942 -21l0 -4 4 0 -4 4zm2947 4c13,4 4,9 4,13 -4,9 -8,13 -8,22 -4,-5 -4,-5 -9,-5l13 -30zm-3889 17c-9,13 -13,30 -22,43 13,-13 17,-30 22,-43zm1738 22c4,-9 4,-13 4,-22 4,0 4,0 9,5 -5,4 -9,8 -13,17 0,4 -4,13 -4,17l-5 0c0,-4 5,-13 9,-17zm839 -9c-4,17 -13,26 -26,30 4,-13 13,-25 26,-30zm-2599 30c-17,31 -30,56 -39,91 26,-26 35,-56 39,-91zm2556 26c-9,22 -22,43 -43,56 8,-21 21,-43 43,-56zm1321 30c-5,5 -5,13 -9,18 0,-5 0,-13 4,-18l5 0zm-2169 39l13 -13c0,-4 4,-13 4,-17l5 0c-5,9 -5,13 -9,17 -4,4 -4,13 -4,17 0,0 -4,0 -9,5l0 -9zm-890 22l-13 25c-13,9 -22,22 -30,30 8,-12 17,-21 30,-30l13 -30c8,-8 21,-17 30,-30 -9,13 -22,22 -30,35zm3046 -26c-13,51 -30,103 -52,159 0,-43 22,-112 52,-159zm-3920 43c13,-13 13,-26 17,-39 -4,13 -8,26 -17,39zm2521 4c9,-13 18,-26 31,-34 -5,17 -13,30 -31,34zm-2542 47l21 -47c-8,17 -17,30 -21,47zm2499 9l31 -30c-9,13 -18,26 -31,30zm-770 60c9,-30 13,-60 39,-86 -4,9 -4,13 -4,22l-35 64c0,9 0,17 -4,26l-4 0c4,-9 8,-17 8,-26zm-1024 -34c9,-13 18,-22 30,-35 -8,13 -21,22 -30,35zm1777 0c-8,21 -21,43 -43,56 9,-22 22,-43 43,-56zm-1704 43c9,-9 18,-22 31,-30l-31 30zm1687 129c0,0 -4,4 -4,9 0,0 -5,0 -9,4 0,-4 4,-4 4,-9 5,0 5,-4 9,-4 13,-30 30,-56 60,-86 -17,43 -17,43 -60,86zm1381 -43c4,-9 9,-22 13,-39 9,22 -4,35 -13,39zm-1480 17c9,-21 22,-39 43,-52 -9,22 -21,39 -43,52zm-1635 -43l4 -4c0,4 0,4 -4,4zm951 82c-4,-17 4,-35 21,-52 -8,17 -12,35 -21,52zm2143 21c8,-25 13,-47 21,-64 -4,21 -4,43 -21,64 -5,9 -5,18 -9,35 -4,-17 0,-26 9,-35zm-3145 -30l0 -8c0,-5 4,-5 8,-5 -4,5 -4,5 -4,9 0,0 -4,0 -4,4zm1725 65l0 -5 4 0 -4 5zm-598 60l0 -4c0,4 -5,8 -5,8 0,0 5,0 5,-4zm1966 47c0,-4 4,-8 17,-17 -8,13 -8,22 -13,26 0,9 -4,17 -8,26 -5,0 -5,0 -9,0l13 -35zm-1996 56l0 -8c0,4 -5,4 -5,8l0 13c5,-4 5,-8 5,-13zm1949 99c4,-17 8,-30 13,-60 4,30 -5,47 -13,60 -5,13 -5,26 -9,39 0,0 -4,0 -4,0l13 -39zm-1997 103c0,0 -4,0 -4,0l0 13c0,-4 0,-8 4,-13zm-1501 13l4 0 -4 5 0 -5zm3463 0c-8,35 -17,74 -38,104 8,-39 17,-74 38,-104zm-3433 104c-9,13 -13,30 -35,43 9,-22 22,-35 35,-43 4,-22 21,-43 43,-56 -13,21 -22,43 -43,56zm3390 17c0,8 0,13 -4,21 0,-4 -4,-4 -4,-4 4,-4 4,-13 8,-17zm-39 120c5,0 5,5 5,5 0,4 -5,4 -5,8l-4 -4c4,0 4,-4 4,-9zm164 9l0 -4 -4 0 4 4zm-4281 73l0 -4 0 0 0 4zm4092 17l0 5 -5 0 5 -5zm-3791 379l0 4c-8,9 -13,17 -17,26l13 -30c0,0 4,0 4,0 4,0 4,-4 0,0zm0 0c0,0 0,0 0,0 0,0 0,0 0,0zm3675 13l4 0c-4,4 -4,13 -4,21l-5 0c0,-8 0,-17 5,-21zm-4170 39l0 -5 0 0 0 5zm4139 68c0,0 0,0 0,5l0 4c0,0 -4,-4 -4,-4l4 -5zm104 177c4,-5 4,-5 4,-5l0 -4c0,0 0,0 -4,4l0 5zm-30 137c0,-21 4,-43 4,-64l-13 69c4,-5 4,-5 9,-5zm-4415 112l4 0c-4,-4 -4,-8 -4,-8l0 8zm4230 5c0,0 0,0 4,0l0 8c0,0 -4,0 -4,0l0 -8zm-4273 107c0,-4 0,-4 0,-8l0 8zm-60 134l-4 -5c0,0 4,0 4,-4 0,4 4,4 4,4 0,5 0,5 -4,5z"></path> <path class="fil0" d="M15606 6328c-4,-8 -8,-13 -17,-17 -56,-52 -116,-65 -181,-47 -34,8 -68,21 -103,34 -120,52 -237,112 -348,176l-61 35c-4,0 -17,0 -17,-4 -4,-5 -13,-18 -8,-22 17,-34 17,-73 25,-108 9,-47 0,-90 -13,-137 -4,-30 -21,-60 -43,-82 -30,-34 -64,-60 -99,-82 -64,-47 -129,-56 -193,-38 -17,4 -39,12 -56,21 -65,30 -121,77 -176,116 -78,60 -147,134 -224,194 -43,34 -78,69 -116,103 -69,60 -151,108 -237,146 -17,5 -34,18 -52,0 -17,-13 -13,-30 -13,-47 -4,-64 18,-120 18,-181 0,-4 8,-13 8,-17 5,-8 9,-17 9,-26l21 -60c9,-26 22,-47 35,-73l39 -86c4,-17 4,-35 -5,-52 -4,-17 -17,-21 -30,-30l-21 -13c-22,9 -35,22 -48,39 -38,43 -73,95 -103,146 -43,78 -69,159 -77,250 -13,86 17,159 94,228 52,43 103,64 164,60 34,0 73,-9 107,-17 56,-22 108,-47 159,-82l104 -77c56,-39 103,-82 150,-129 18,-18 35,-31 56,-48l168 -133c39,-39 86,-60 138,-86l34 -13c17,0 26,9 30,21l0 35c-4,34 -4,64 -8,99 -18,107 -52,211 -91,310l-8 21c-13,13 -22,26 -35,35l-94 64c-108,65 -207,138 -306,211 -90,69 -181,142 -271,215 -60,47 -116,99 -176,151 -108,90 -211,180 -306,279 -86,91 -176,177 -258,267 -69,77 -138,155 -202,237 -82,103 -164,202 -237,309 -43,69 -90,138 -129,207 -43,73 -82,151 -116,228 -43,95 -77,189 -95,293 -4,43 -13,90 -8,133 0,90 43,168 133,219l26 13c56,35 112,43 168,35 81,-5 150,-39 215,-78 73,-47 142,-94 202,-150 47,-43 90,-82 133,-125 52,-47 104,-95 147,-151 94,-107 193,-211 271,-335 4,-9 13,-13 17,-22 17,-21 30,-39 47,-60l121 -172c38,-56 73,-116 112,-172 21,-30 38,-65 60,-95 13,-21 21,-47 30,-73 9,-13 13,-26 26,-34 0,-5 0,-13 4,-18 0,5 0,13 4,18l0 -18c5,-8 13,-17 18,-30l8 -13c0,5 4,9 4,13l0 -17c0,0 -4,0 -4,0l35 -39c-9,-21 0,-34 13,-43 0,5 4,9 4,17 4,-8 4,-12 8,-21l-12 0c4,-13 8,-22 12,-30l31 -43c4,-17 8,-30 21,-39 4,-13 9,-30 22,-39 4,-13 8,-25 21,-34 9,-13 13,-26 17,-39l26 -39c13,-38 35,-77 60,-107 13,-26 30,-56 48,-82l13 -26c0,-13 4,-21 12,-30 9,-8 13,-21 18,-30 8,-13 17,-26 26,-39l-5 0c9,-8 13,-21 22,-30 0,5 0,9 4,17 4,-8 9,-12 -4,-21 4,-22 13,-43 26,-56l4 0c0,-26 13,-47 34,-64 5,-39 22,-69 48,-95 0,-9 4,-22 13,-26 4,-30 12,-56 34,-77 4,-9 4,-22 9,-31 8,-21 21,-43 30,-64 8,-13 17,-22 21,-34l9 -22 0 4 0 -4c0,9 0,13 4,17 0,-4 0,-8 4,-13 -4,0 -8,0 -8,-4 0,-13 0,-22 13,-26 0,-4 4,-13 4,-21l0 4 9 -22c17,-30 38,-55 68,-73 18,-13 35,-21 56,-34 151,-99 306,-194 469,-275 35,-18 69,-35 108,-48 34,-13 73,-26 116,-13l9 0c8,0 13,-13 8,-17zm-1153 -185c0,9 -8,13 -13,13l13 -13zm-361 310c0,0 0,4 -5,4 0,4 -4,4 -4,4 0,-4 0,-8 0,-8l9 0c4,-17 17,-26 30,-30 8,-13 17,-26 34,-30 9,-9 22,-18 30,-30 43,-43 86,-87 138,-121l35 -26c8,-8 17,-13 21,-21l30 -17c4,-9 13,-18 22,-18 0,13 -9,18 -22,22 -8,4 -13,13 -21,17 -9,9 -18,13 -26,22l-30 25c-9,9 -13,18 -17,26l-26 22c4,0 13,0 17,0l-17 4c-22,17 -43,34 -69,52 -9,4 -17,13 -30,21 -9,9 -22,17 -35,26 -4,13 -17,21 -30,30 -8,13 -17,22 -34,26zm391 -202c-103,86 -206,172 -309,262 -9,9 -22,22 -39,22 0,4 0,8 -5,8 0,0 -4,0 -4,0l0 -4c4,-4 4,0 9,-4 8,-9 21,-22 30,-35 82,-69 168,-142 249,-215l52 -43c13,-4 26,-9 35,-17 -5,8 -9,17 -18,26zm293 559c-4,-9 -4,-13 -4,-22l0 18 4 4zm-9 17c5,-8 5,-13 9,-17l-13 0c4,9 4,13 4,17zm-4 17c4,-8 4,-13 4,-17l-8 0c0,4 4,9 4,17zm-13 31l0 -5c-4,0 -4,5 -4,5l4 0zm-293 73l-51 34c8,-21 30,-30 56,-47 0,8 0,13 -5,13zm-73 47c-4,13 -8,17 -21,17 8,-4 13,-8 21,-17zm65 34c-26,52 -52,108 -78,155l-245 448c-43,73 -90,150 -133,223l-13 22c-73,138 -159,271 -245,404 -43,74 -95,142 -142,211 -56,78 -112,159 -168,233 -103,133 -211,253 -323,374 -82,82 -168,155 -254,224 -56,43 -111,77 -176,103 -17,8 -34,13 -52,17 -17,9 -25,0 -34,-17 -9,-9 -13,-22 -17,-35l-9 -86 0 5c-9,-13 -17,-26 -13,-39 0,-22 0,-43 13,-60 4,-9 4,-22 4,-30 0,-26 9,-43 18,-65 0,-21 8,-39 25,-52l0 -21c0,-9 5,-13 9,-22 17,-17 26,-43 34,-68 31,-74 69,-138 99,-207 39,-47 65,-103 95,-155l95 -129c13,-17 26,-34 38,-51l39 -56c30,-39 60,-78 91,-112l172 -198c13,-13 21,-26 34,-35 90,-99 181,-189 275,-284 48,-43 91,-86 134,-129 21,-21 47,-43 73,-64 52,-43 99,-86 150,-129l250 -211c56,-43 116,-90 176,-133l52 -44c4,-4 4,-4 26,-4l0 17zm-271 125l26 -17c4,-13 13,-17 25,-17 9,-26 31,-39 52,-52 13,-4 22,-8 30,-17 5,-9 13,-17 26,-17 4,-13 13,-18 22,-18 -5,9 -13,13 -22,18 -4,8 -13,17 -26,17l-21 21c-18,22 -35,39 -61,48 -8,8 -12,17 -25,17 -9,9 -13,17 -26,17 -13,26 -30,39 -56,48 -13,25 -30,38 -56,47 9,-22 30,-39 56,-47 13,-22 30,-39 56,-48zm-39 -77l-4 0c0,0 0,0 -5,4l0 -9c5,0 5,0 9,5zm-95 69c9,-13 18,-22 35,-26 -4,17 -17,21 -35,26 -4,12 -12,17 -25,17 4,-9 13,-13 25,-17zm-25 21c-9,13 -18,22 -30,26 4,-13 12,-26 30,-26zm-69 52l4 4c-4,0 -4,0 -4,0l0 -4zm572 17l-4 0 4 -4 0 4zm-460 13c-5,21 -22,30 -43,34 13,-13 25,-26 43,-34zm-177 26l0 4c0,0 -4,-4 0,-4zm-34 30c0,0 0,0 4,0l0 4c0,0 -4,0 -4,0l0 -4zm120 21c5,-4 5,-8 5,-8 4,0 4,0 4,0l0 4c0,0 -4,0 -9,4l-8 9c0,0 0,-4 -5,-4 5,0 9,-5 13,-5zm499 5l0 -5c5,0 5,5 5,5l-5 0zm-679 25c0,5 0,5 0,5l-5 0c0,-5 5,-5 5,-5zm710 0c0,0 0,0 0,0zm8 5c-4,0 -4,0 -8,-5 0,9 0,18 0,26l8 -21zm-658 69c8,-13 17,-26 34,-31 9,-12 22,-30 39,-38 -9,21 -9,21 -39,38 -8,18 -17,26 -34,31 -4,12 -13,21 -35,30 9,-22 22,-26 35,-30zm637 -31c-5,0 -9,-4 -13,-4 4,4 4,13 4,22 0,-5 4,-13 9,-18zm-22 43c0,-4 4,-8 4,-12l-8 0c4,4 4,8 4,12zm-783 13c-4,13 -13,18 -21,18l8 -13c0,0 4,0 13,-5zm770 18c0,-5 0,-9 4,-18l-8 0c0,9 0,13 4,18zm-822 146l138 -125c4,-4 9,-9 22,-17 -5,13 0,17 -5,17 -51,47 -103,95 -155,142l-12 9c-26,34 -52,60 -87,77 26,-34 48,-64 87,-77l12 -26zm31 -142c-5,8 -5,17 -22,17 4,-13 13,-17 22,-17zm709 34c5,-4 5,-8 5,-13 0,5 4,5 4,5 -4,4 -4,8 -9,8zm-43 78c0,13 -4,21 -12,26 -9,34 -22,64 -52,86 0,8 -4,21 -13,25 4,-12 9,-17 13,-25 8,-35 26,-65 52,-86 0,-13 4,-22 12,-26 5,-35 26,-56 43,-73 -8,30 -17,56 -43,73zm-778 -13c8,-17 21,-30 38,-35 5,-4 5,-12 9,-12 0,-5 9,-5 9,-9 0,13 0,13 -18,21 -4,18 -21,31 -38,39 -5,17 -22,30 -39,39 4,-22 4,-22 39,-43zm839 -9l-5 -4c0,0 0,0 0,4l5 0zm-938 103c4,-12 13,-21 26,-25 -5,17 -5,17 -22,30 -9,13 -21,26 -47,39 13,-26 26,-35 43,-44zm778 95c0,17 -8,30 -21,39 -4,13 -9,30 -17,43 -65,116 -134,232 -202,348 -74,117 -151,233 -229,349 -12,21 -34,39 -51,56 0,26 -17,43 -35,56 5,-30 5,-30 35,-56 8,-13 13,-30 21,-43 138,-198 263,-409 388,-620 17,-26 30,-51 47,-82 13,-17 21,-38 43,-51 0,-17 9,-30 21,-39 5,-13 9,-30 22,-34 0,17 -9,26 -22,34zm-847 -30c4,4 4,9 4,9 -8,8 -17,17 -21,25 -5,-4 -5,-8 -9,-8l26 -26zm39 95c17,-22 34,-43 60,-56 4,-13 13,-22 34,-30 -8,17 -17,30 -34,30 -13,26 -30,47 -56,60 -26,30 -56,65 -86,95 -13,13 -26,25 -39,34 -21,26 -39,47 -60,69 -4,8 -13,17 -26,21 22,-34 47,-68 82,-90 13,-17 21,-34 39,-47 25,-30 55,-56 86,-86zm860 -82c4,4 4,13 4,17 5,-4 9,-13 -4,-17zm-17 56l8 -22c-4,5 -8,5 -8,5l0 17zm-934 -9c-8,17 -17,30 -38,39 8,-22 21,-30 38,-39zm925 17c-4,5 -8,5 -17,9 0,9 4,13 4,17l13 -26zm-176 65c0,22 -13,39 -26,52 -9,13 -13,25 -21,38l-22 35c-4,17 -13,34 -30,38 0,0 0,5 -4,9 4,17 -5,26 -18,39 -4,17 -13,30 -30,39l0 4c0,17 -8,30 -21,39 -5,21 -13,38 -30,47 -5,21 -13,39 -35,47l-8 0c13,22 -5,35 -18,48l-4 -18c-4,9 -13,18 -4,35l-13 8c-4,9 -4,13 -4,22 -5,-9 -5,-13 -5,-22 -4,9 -8,22 -8,30l-13 18c0,13 -5,17 -17,8 -22,30 -43,61 -65,86 -13,26 -26,48 -47,69 4,-30 4,-30 38,-73l69 -103c95,-159 194,-319 289,-473 17,-26 34,-48 47,-69 0,-5 0,-5 4,-9 0,0 4,0 4,0l0 4c0,5 -4,5 -4,9 0,4 -4,13 -4,21 13,9 13,13 0,22zm155 -26c-5,0 -9,4 -17,9 0,4 4,13 4,17l13 -26zm-968 9c-13,30 -26,47 -56,64 8,-25 30,-47 56,-64zm800 26c4,0 9,-5 13,-9 0,-4 0,-13 0,-17l-13 26zm142 8l-22 9c5,8 5,13 5,21l17 -30zm-168 30l9 0c0,-4 0,-8 -5,-17 0,9 0,13 -4,17zm-17 39l4 0c0,-9 0,-13 -4,-17l0 17zm-852 0c0,0 4,4 4,4l-4 5c-4,0 -4,-5 -4,-5 0,-4 4,-4 4,-4zm830 34l5 0c0,-4 -5,-8 -5,-12l0 12zm-890 26c4,17 -4,26 -22,26 9,-9 18,-17 22,-26zm839 61l4 0c0,-5 0,-9 -4,-18l0 18zm-822 64c-17,34 -17,34 -43,56 9,-26 26,-39 43,-56zm774 17l0 -13c-4,5 -4,9 -4,18l4 -5zm-34 52l4 0 5 0c0,-4 -5,-13 -5,-17l-4 17zm-972 82c-5,8 -5,13 -13,21 -5,-13 4,-17 13,-21zm43 81c4,0 8,5 8,5 -4,13 -13,26 -21,38 -9,-25 8,-30 13,-43zm-116 5c12,17 -5,17 0,34 -13,-21 0,-21 0,-34zm-319 628c0,8 -4,13 -4,21l-4 18c-5,4 -9,4 -13,0 -5,12 -13,25 -22,34l9 -47c34,-104 77,-203 129,-302 26,-47 56,-94 82,-146 8,-13 21,-26 30,-39l60 -90c0,-4 4,-4 17,-13 -21,43 -43,78 -69,108 -4,13 -4,21 -4,34 -4,9 -4,13 -9,17 -4,9 -8,13 -13,22l-4 0c-4,9 -8,17 -17,30l-4 0c4,17 -5,26 -18,39l5 -5c-5,5 -5,9 -5,9 -4,9 -8,13 -8,22 -4,0 -4,4 -4,4 -5,17 -9,26 -22,34 -4,35 -21,65 -43,95 0,4 -4,9 -9,17 0,9 0,22 -13,26 0,22 -4,34 -17,47 -4,5 -4,13 -8,18 0,21 -5,38 -22,47zm22 219l0 13c0,0 -5,0 -9,4 0,-55 13,-103 26,-150 30,-99 69,-194 116,-284 56,-112 125,-219 198,-323 4,-4 9,-8 17,-4 -4,9 -8,17 -13,21 -69,108 -133,216 -193,332 -61,120 -112,249 -142,391zm1080 -641c-5,5 -9,9 -13,17 -9,-12 0,-17 13,-17zm-112 151c13,-30 13,-30 38,-52 -8,22 -25,30 -38,52zm116 0c0,0 -4,0 -4,-5 4,0 4,0 8,0l-4 5zm-1153 391l-9 0c5,-8 9,-17 9,-21l0 21z"></path> <path class="fil0" d="M16690 6242c-17,-30 -43,-56 -68,-82 -48,-47 -99,-64 -160,-56 -64,9 -129,30 -185,56 -90,43 -176,86 -258,134 -64,38 -124,69 -185,112 -77,55 -155,103 -223,172l-43 38c-5,5 -13,13 -22,5 -9,-9 -9,-13 -9,-22 0,-8 9,-17 9,-30 0,-86 39,-168 52,-258 4,-35 8,-69 -5,-103 -8,-26 -25,-43 -47,-56 -9,-5 -17,-5 -21,4l-13 26c-22,43 -35,90 -48,138 -30,103 -69,202 -103,305 -39,120 -69,237 -108,353 -8,26 -4,47 18,69 8,8 21,17 25,30 13,34 39,43 69,56 22,8 39,4 56,0 17,-5 13,-22 17,-30 0,0 5,0 9,-5 0,-4 4,-8 9,-13l8 -8c22,-52 56,-91 95,-129 9,-18 21,-35 34,-43 5,4 5,13 5,21 13,-17 25,-30 34,-43l-21 0c21,-30 43,-60 77,-77 0,-5 4,-5 4,-9 5,-4 9,-9 9,-13 4,0 9,-4 13,-8 4,-13 13,-18 26,-22 4,-4 8,-9 8,-13l9 -8c0,4 0,4 4,8 0,-4 0,-4 -4,-8l4 0c4,-22 22,-35 43,-43l9 -13c8,-13 21,-26 38,-31l9 -12c9,-5 13,-9 22,-9 0,-4 4,-9 8,-13l-4 0c9,-9 17,-17 30,-21l9 -9c8,-13 21,-17 30,-26 8,-8 21,-13 30,-21 4,-13 17,-18 26,-22l0 4c0,5 4,5 4,9 0,-4 4,-4 9,-9l0 -4c13,-4 25,-13 38,-17 0,0 0,0 0,-4l9 -9c17,-13 43,-22 47,-39 5,-13 17,-13 26,-17 17,-9 34,-17 47,-26 31,-21 61,-43 95,-60 65,-30 129,-65 198,-90 21,-9 43,-13 69,-22 34,-13 60,-4 94,30 5,5 5,5 9,5 13,0 17,12 26,4 8,-9 13,-17 8,-26zm-331 -60c4,0 -8,8 -26,8 5,-4 13,-8 26,-8zm-641 387c9,-17 22,-26 39,-30 4,-13 13,-22 26,-22 4,-17 17,-21 25,-25 9,-9 22,-18 31,-22 12,-13 30,-26 47,-34 13,-13 30,-26 52,-30 21,-22 51,-43 86,-56 68,-43 137,-86 215,-117 4,-8 13,-8 21,-8 13,-17 30,-22 52,-22 4,-8 13,-8 17,-8 4,0 4,4 4,8 -8,0 -13,0 -21,0l0 9c-13,9 -26,21 -47,13l0 8c-9,5 -13,5 -22,5 0,4 0,4 0,8l-17 13 0 -4c-13,9 -17,21 -30,26 -5,4 -13,8 -22,8 -4,9 -8,9 -17,13l-22 9c-8,17 -25,26 -47,30l0 -9c-8,5 -13,9 -17,9l17 4c-4,5 -13,9 -17,9 -4,-4 -4,-4 -4,-9 -5,5 -13,5 -18,9l18 0c0,9 -9,9 -18,13 -4,4 -12,8 -17,8 -4,-4 -4,-4 -4,-8l0 8c-9,18 -26,26 -47,35 -5,4 -9,8 -18,8 -8,13 -17,18 -30,22 -4,9 -13,9 -17,13 -4,-4 -4,-9 -4,-13l-17 4c0,5 0,5 -5,9l22 0c-5,8 -13,17 -26,21 -4,5 -13,9 -22,9 0,-4 0,-9 0,-9l-17 0c-4,9 -8,13 -13,22l22 0c-5,4 -9,9 -17,9 0,-5 -5,-9 -5,-9 -4,0 -13,0 -17,4 -4,5 -9,9 -9,17l18 0c-5,0 -13,5 -18,9 0,-4 0,-9 0,-9l-21 0c-4,5 -9,13 -9,22 9,0 13,0 22,0l-22 9c0,-5 0,-9 0,-9l-21 0c-4,4 -4,13 -9,21l22 0c-5,9 -13,18 -26,18 0,0 -4,-5 -4,-9 -5,0 -13,0 -18,4 -4,0 -8,5 -8,5 0,-5 4,-5 4,-9zm697 -318c-193,64 -357,193 -512,314 -150,116 -275,254 -391,396 -18,21 -31,47 -56,64l-5 0 0 -4c0,-17 13,-30 22,-39 133,-133 237,-284 383,-404 137,-117 292,-207 456,-297 47,-26 90,-43 142,-56 -9,13 -26,21 -39,26zm-383 107l0 5c5,0 13,0 17,4 0,-4 0,-9 -4,-13 -4,4 -8,4 -13,4zm-73 52l22 0c0,-4 0,-9 0,-13l-22 13zm-17 0c0,4 0,8 0,8l21 0c0,-4 -4,-8 -4,-8l-17 0zm-30 30l21 0c0,-4 0,-9 0,-13l-21 13zm-48 34c9,0 13,0 22,0l0 -13c-9,5 -17,9 -22,13zm121 74l0 -13c-4,4 0,4 0,13zm0 0l4 4c0,-4 -4,-4 -4,-4zm-275 34c0,4 -5,13 -5,17l-21 0c4,-8 13,-17 26,-17zm219 9l-13 0c0,4 4,8 4,8l9 -8zm-17 21c0,-4 4,-4 8,-9l0 -4c-4,4 -8,9 -13,13l5 0zm-241 0c-5,13 -13,17 -26,22 9,-9 17,-18 26,-22zm219 13l17 -13c-4,0 -12,0 -17,0l0 13zm-8 9c4,-5 4,-9 8,-9 -4,0 -8,0 -8,0l0 9zm-22 8c0,4 0,4 0,4l22 -12c-9,0 -13,0 -22,0l0 8zm4 4l-4 0c0,0 0,0 0,0l4 0zm-13 9l9 -9c-4,0 -4,0 -9,0l0 9zm0 0l-8 13c4,-4 8,-9 8,-13zm-17 22c5,-5 9,-5 9,-9 -4,0 -4,4 -9,9zm-17 13c4,-5 9,-9 17,-13l-21 0c0,4 4,8 4,13zm-211 -9c-4,9 -13,13 -26,17 9,-8 18,-17 26,-17zm207 9l-9 0c0,4 4,4 4,8 0,-4 5,-4 5,-8zm-22 34c0,-4 5,-9 5,-13l-9 13 4 0zm-38 30c4,-4 4,-9 8,-13l-13 0c5,4 5,9 5,13zm-9 9c0,-5 4,-5 9,-9l-13 0c0,4 4,4 4,9zm-9 13c0,-5 5,-9 9,-13 -4,4 -9,8 -13,13l4 0zm-21 8c8,-4 13,-4 17,-8 -4,0 -13,0 -17,0l0 8zm-9 13l9 -13c-4,0 -9,0 -9,0l0 13zm-8 9l8 -9c-4,0 -8,0 -8,0l0 9zm-9 8c4,0 4,-4 9,-8 -5,0 -9,0 -9,0l0 8zm0 5c-4,0 -9,4 -9,8 0,-4 5,-4 9,-8zm-26 30c0,-5 4,-5 9,-9 0,-4 4,-9 8,-13l-13 13c0,0 -4,4 -8,9l-9 13c0,0 -4,4 -8,8l13 -8c0,-5 4,-9 8,-13zm-21 21c0,5 -5,9 -9,13l4 0c0,-4 5,-8 5,-13zm-43 56l-9 9c4,-5 9,-5 9,-9zm-52 65l4 -5 -4 0 -9 13c5,-4 5,-8 9,-8zm-17 21c0,-4 4,-8 8,-13l-12 13c0,4 -5,4 -5,9 5,0 5,-5 9,-9zm-9 9l-4 4c4,0 4,-4 4,-4zm-4 4l-9 9c0,4 -4,4 -4,8l9 -8c4,-5 4,-5 4,-9zm-13 17l-9 9c-4,4 -4,9 -8,9 4,0 8,-5 8,-5l9 -13zm-22 26c0,0 5,-4 5,-8 0,4 -5,4 -5,8zm0 0c-4,0 -4,4 -8,9 4,-5 8,-5 8,-9zm-8 9l-9 0c0,4 0,4 0,8l9 -8zm-17 21c4,-4 8,-8 8,-13 -4,0 -4,0 -8,0l0 13zm-9 0l9 0c-5,-4 -9,-4 -9,0zm2431 -856c-17,-30 -43,-56 -69,-82 -47,-47 -99,-64 -159,-56 -65,9 -129,30 -185,56 -90,43 -176,86 -258,134 -65,38 -125,69 -185,112 -78,55 -155,103 -224,172l-43 38c-4,5 -13,13 -22,5 -8,-9 -8,-13 -8,-22 0,-8 8,-17 8,-30 0,-86 39,-168 52,-258 4,-35 9,-69 -4,-103 -9,-26 -26,-43 -48,-56 -8,-5 -17,-5 -21,4l-13 26c-21,43 -34,90 -47,138 -30,103 -69,202 -104,305 -38,120 -68,237 -107,353 -9,26 -4,47 17,69 9,8 22,17 26,30 13,34 39,43 69,56 21,8 39,4 56,0 17,-5 13,-22 17,-30 0,0 4,0 9,-5 0,-4 4,-8 8,-13l9 -8c21,-52 56,-91 94,-129 9,-18 22,-35 35,-43 4,4 4,13 4,21 13,-17 26,-30 35,-43l-22 0c22,-30 43,-60 77,-77 0,-5 5,-5 5,-9 4,-4 8,-9 8,-13 5,0 9,-4 13,-8 5,-13 13,-18 26,-22 4,-4 9,-9 9,-13l8 -8c0,4 0,4 5,8 0,-4 0,-4 -5,-8l5 0c4,-22 21,-35 43,-43l8 -13c9,-13 22,-26 39,-31l9 -12c8,-5 12,-9 21,-9 0,-4 4,-9 9,-13l-5 0c9,-9 18,-17 31,-21l8 -9c9,-13 22,-17 30,-26 9,-8 22,-13 30,-21 5,-13 18,-18 26,-22l0 4c0,5 4,5 4,9 0,-4 5,-4 9,-9l0 -4c13,-4 26,-13 39,-17 0,0 0,0 0,-4l8 -9c18,-13 43,-22 48,-39 4,-13 17,-13 26,-17 17,-9 34,-17 47,-26 30,-21 60,-43 95,-60 64,-30 129,-65 197,-90 22,-9 43,-13 69,-22 35,-13 61,-4 95,30 4,5 4,5 9,5 12,0 17,12 25,4 9,-9 13,-17 9,-26zm-331 -60c4,0 -9,8 -26,8 4,-4 13,-8 26,-8zm-641 387c8,-17 21,-26 38,-30 5,-13 13,-22 26,-22 4,-17 17,-21 26,-25 9,-9 21,-18 30,-22 13,-13 30,-26 47,-34 13,-13 31,-26 52,-30 22,-22 52,-43 86,-56 69,-43 138,-86 215,-117 5,-8 13,-8 22,-8 13,-17 30,-22 51,-22 5,-8 13,-8 18,-8 4,0 4,4 4,8 -9,0 -13,0 -22,0l0 9c-13,9 -25,21 -47,13l0 8c-9,5 -13,5 -21,5 0,4 0,4 0,8l-18 13 0 -4c-13,9 -17,21 -30,26 -4,4 -13,8 -21,8 -5,9 -9,9 -18,13l-21 9c-9,17 -26,26 -47,30l0 -9c-9,5 -13,9 -18,9l18 4c-5,5 -13,9 -18,9 -4,-4 -4,-4 -4,-9 -4,5 -13,5 -17,9l17 0c0,9 -9,9 -17,13 -4,4 -13,8 -17,8 -5,-4 -5,-4 -5,-8l0 8c-8,18 -25,26 -47,35 -4,4 -9,8 -17,8 -9,13 -17,18 -30,22 -5,9 -13,9 -17,13 -5,-4 -5,-9 -5,-13l-17 4c0,5 0,5 -4,9l21 0c-4,8 -13,17 -26,21 -4,5 -13,9 -21,9 0,-4 0,-9 0,-9l-17 0c-5,9 -9,13 -13,22l21 0c-4,4 -8,9 -17,9 0,-5 -4,-9 -4,-9 -5,0 -13,0 -17,4 -5,5 -9,9 -9,17l17 0c-4,0 -13,5 -17,9 0,-4 0,-9 0,-9l-22 0c-4,5 -8,13 -8,22 8,0 13,0 21,0l-21 9c0,-5 0,-9 0,-9l-22 0c-4,4 -4,13 -8,21l21 0c-4,9 -13,18 -26,18 0,0 -4,-5 -4,-9 -4,0 -13,0 -17,4 -4,0 -9,5 -9,5 0,-5 5,-5 5,-9zm697 -318c-194,64 -358,193 -512,314 -151,116 -276,254 -392,396 -17,21 -30,47 -56,64l-4 0 0 -4c0,-17 13,-30 21,-39 134,-133 237,-284 383,-404 138,-117 293,-207 456,-297 48,-26 91,-43 142,-56 -8,13 -25,21 -38,26zm-383 107l0 5c4,0 13,0 17,4 0,-4 0,-9 -4,-13 -5,4 -9,4 -13,4zm-73 52l21 0c0,-4 0,-9 0,-13l-21 13zm-18 0c0,4 0,8 0,8l22 0c0,-4 -4,-8 -4,-8l-18 0zm-30 30l22 0c0,-4 0,-9 0,-13l-22 13zm-47 34c8,0 13,0 21,0l0 -13c-8,5 -17,9 -21,13zm120 74l0 -13c-4,4 0,4 0,13zm0 0l5 4c0,-4 -5,-4 -5,-4zm-275 34c0,4 -4,13 -4,17l-22 0c4,-8 13,-17 26,-17zm219 9l-12 0c0,4 4,8 4,8l8 -8zm-17 21c0,-4 5,-4 9,-9l0 -4c-4,4 -9,9 -13,13l4 0zm-241 0c-4,13 -13,17 -26,22 9,-9 18,-18 26,-22zm220 13l17 -13c-4,0 -13,0 -17,0l0 13zm-9 9c4,-5 4,-9 9,-9 -5,0 -9,0 -9,0l0 9zm-21 8c0,4 0,4 0,4l21 -12c-9,0 -13,0 -21,0l0 8zm4 4l-4 0c0,0 0,0 0,0l4 0zm-13 9l9 -9c-5,0 -5,0 -9,0l0 9zm0 0l-9 13c5,-4 9,-9 9,-13zm-17 22c4,-5 8,-5 8,-9 -4,0 -4,4 -8,9zm-17 13c4,-5 8,-9 17,-13l-22 0c0,4 5,8 5,13zm-211 -9c-5,9 -13,13 -26,17 9,-8 17,-17 26,-17zm206 9l-8 0c0,4 4,4 4,8 0,-4 4,-4 4,-8zm-21 34c0,-4 4,-9 4,-13l-9 13 5 0zm-39 30c4,-4 4,-9 9,-13l-13 0c4,4 4,9 4,13zm-9 9c0,-5 5,-5 9,-9l-13 0c0,4 4,4 4,9zm-8 13c0,-5 4,-9 8,-13 -4,4 -8,8 -12,13l4 0zm-22 8c9,-4 13,-4 18,-8 -5,0 -13,0 -18,0l0 8zm-8 13l8 -13c-4,0 -8,0 -8,0l0 13zm-9 9l9 -9c-5,0 -9,0 -9,0l0 9zm-9 8c5,0 5,-4 9,-8 -4,0 -9,0 -9,0l0 8zm0 5c-4,0 -8,4 -8,8 0,-4 4,-4 8,-8zm-25 30c0,-5 4,-5 8,-9 0,-4 5,-9 9,-13l-13 13c0,0 -4,4 -9,9l-8 13c0,0 -5,4 -9,8l13 -8c0,-5 4,-9 9,-13zm-22 21c0,5 -4,9 -8,13l4 0c0,-4 4,-8 4,-13zm-43 56l-8 9c4,-5 8,-5 8,-9zm-52 65l5 -5 -5 0 -8 13c4,-4 4,-8 8,-8zm-17 21c0,-4 5,-8 9,-13l-13 13c0,4 -4,4 -4,9 4,0 4,-5 8,-9zm-8 9l-5 4c5,0 5,-4 5,-4zm-5 4l-8 9c0,4 -5,4 -5,8l9 -8c4,-5 4,-5 4,-9zm-13 17l-8 9c-4,4 -4,9 -9,9 5,0 9,-5 9,-5l8 -13zm-21 26c0,0 4,-4 4,-8 0,4 -4,4 -4,8zm0 0c-4,0 -4,4 -9,9 5,-5 9,-5 9,-9zm-9 9l-8 0c0,4 0,4 0,8l8 -8zm-17 21c4,-4 9,-8 9,-13 -5,0 -5,0 -9,0l0 13zm-8 0l8 0c-4,-4 -8,-4 -8,0z"></path> </g> <path class="fil0" d="M5829 9897c-38,0 -66,6 -83,17 -18,11 -48,43 -91,95 -54,66 -95,107 -122,123 24,7 47,16 68,30 21,13 54,51 99,115l106 151 90 1c35,0 53,10 53,32 0,21 -18,32 -53,32l-90 0c-26,0 -43,-7 -52,-20 -1,-3 -4,-8 -7,-12l-109 -160c-36,-55 -73,-90 -109,-106 -36,-17 -82,-25 -137,-25l-47 0 0 259 78 0c36,0 53,10 53,32 0,21 -17,32 -53,32l-220 0c-35,0 -53,-11 -53,-32 0,-22 18,-32 53,-32l78 0 0 -532 -78 0c-35,0 -53,-11 -53,-32 0,-21 18,-32 53,-32l220 0c36,0 53,11 53,32 0,21 -17,32 -53,32l-78 0 0 209 47 0c41,0 73,-6 94,-18 22,-12 51,-41 87,-85 62,-76 107,-123 134,-142 27,-19 69,-28 123,-28 26,0 43,3 51,9 8,6 11,21 11,45l0 87c0,31 -10,46 -32,46 -21,0 -31,-13 -31,-40l0 -83zm991 268c0,97 -35,180 -104,249 -70,69 -155,103 -253,103 -100,0 -184,-34 -254,-103 -69,-70 -104,-152 -104,-249 0,-98 35,-181 104,-250 70,-69 154,-104 254,-104 98,0 183,35 253,104 69,69 104,152 104,250zm-64 -1c0,-80 -28,-148 -85,-204 -58,-57 -127,-85 -209,-85 -81,0 -150,29 -208,85 -57,57 -85,125 -85,204 0,80 28,147 85,204 58,57 127,86 208,86 82,0 151,-29 209,-85 57,-57 85,-125 85,-205zm674 -323c37,-20 72,-30 106,-30 69,1 126,35 171,103 45,68 68,152 68,252 0,92 -21,173 -64,242 -42,70 -103,105 -182,105 -37,0 -70,-7 -99,-20l0 179 137 0c36,0 53,11 53,33 0,20 -17,31 -53,31l-338 0c-35,0 -53,-11 -53,-31 0,-22 18,-33 53,-33l137 0 0 -179c-28,13 -61,20 -98,20 -73,0 -132,-32 -179,-96 -46,-63 -69,-147 -69,-251 0,-101 23,-185 68,-253 45,-67 102,-101 173,-102 35,0 70,10 105,30l0 -218 -92 6c-11,1 -18,1 -22,1 -24,0 -36,-10 -36,-32 0,-21 18,-32 54,-34l104 -8c10,0 18,0 22,0 23,0 34,17 34,53l0 232zm0 566c30,28 62,42 95,42 57,0 102,-29 134,-86 31,-57 47,-123 47,-197 0,-76 -16,-144 -47,-202 -32,-59 -76,-89 -133,-89 -37,0 -69,14 -96,41l0 491zm-64 0l0 -491c-23,-27 -55,-41 -94,-41 -59,0 -104,30 -136,89 -31,60 -47,127 -47,201 0,75 16,141 47,198 32,57 76,86 134,86 38,0 71,-14 96,-42zm1313 -228l-652 0c12,83 46,149 104,199 58,50 130,76 215,76 48,0 98,-9 150,-24 52,-16 95,-37 128,-63 9,-8 18,-12 25,-12 8,0 15,3 21,10 6,6 9,14 9,23 0,8 -4,16 -12,25 -24,25 -68,49 -130,71 -61,22 -125,33 -190,33 -110,0 -201,-35 -274,-107 -73,-72 -110,-159 -110,-260 0,-93 35,-173 104,-239 68,-66 153,-100 255,-100 104,0 190,34 257,103 68,68 101,157 100,265zm-64 -64c-13,-71 -46,-129 -100,-173 -55,-44 -119,-67 -194,-67 -75,0 -139,22 -193,66 -54,44 -87,102 -101,174l588 0zm2860 378l-700 0c-29,0 -44,-11 -44,-32 0,-22 15,-32 44,-32l70 0 0 -532 -48 0c-29,0 -44,-11 -44,-32 0,-21 15,-32 44,-32l160 0c29,0 44,11 44,32 0,21 -15,32 -44,32l-48 0 0 532 415 0 0 -532 -49 0c-29,0 -43,-11 -43,-32 0,-21 14,-32 43,-32l161 0c29,0 44,11 44,32 0,21 -15,32 -44,32l-48 0 0 532 96 0c24,0 38,3 45,9 6,6 10,20 10,44l0 119c0,35 -11,52 -32,52 -21,0 -32,-16 -32,-49l0 -111zm356 -64l0 -532 -86 0c-29,0 -44,-11 -44,-32 0,-21 15,-32 44,-32l347 0c173,0 259,55 259,164 0,69 -44,112 -133,132 133,18 200,76 200,175 0,126 -83,189 -250,189l-423 0c-29,0 -44,-11 -44,-32 0,-22 15,-32 44,-32l86 0zm63 -329l172 0c148,0 222,-36 221,-107 0,-30 -12,-53 -37,-71 -24,-16 -77,-25 -158,-25l-198 0 0 203zm0 329l269 0c128,0 192,-42 191,-124 1,-40 -15,-74 -48,-101 -33,-27 -111,-40 -236,-40l-176 0 0 265zm1463 -250l-652 0c12,83 46,149 104,199 58,50 130,76 215,76 48,0 98,-9 150,-24 52,-16 95,-37 128,-63 9,-8 18,-12 25,-12 8,0 15,3 21,10 6,6 9,14 9,23 0,8 -4,16 -12,25 -24,25 -68,49 -130,71 -61,22 -125,33 -190,33 -110,0 -201,-35 -274,-107 -73,-72 -110,-159 -110,-260 0,-93 35,-173 104,-239 68,-66 153,-100 255,-100 104,0 190,34 257,103 68,68 101,157 100,265zm-64 -64c-13,-71 -46,-129 -100,-173 -55,-44 -119,-67 -194,-67 -75,0 -139,22 -193,66 -54,44 -87,102 -101,174l588 0zm685 -218l0 532 165 0c29,0 44,10 44,32 0,21 -15,32 -44,32l-394 0c-30,0 -44,-11 -44,-32 0,-22 14,-32 44,-32l165 0 0 -532 -245 0 0 222c0,29 -11,43 -32,43 -21,0 -32,-14 -32,-43l0 -286 681 0 0 286c0,29 -10,43 -31,43 -22,0 -33,-14 -33,-43l0 -222 -244 0zm1239 0l0 532 86 0c29,0 44,10 44,32 0,21 -15,32 -44,32l-235 0c-29,0 -44,-11 -44,-32 0,-22 15,-32 44,-32l85 0 0 -532 -85 0c-29,0 -44,-11 -44,-32 0,-21 15,-32 44,-32l235 0c29,0 44,11 44,32 0,21 -15,32 -44,32l-86 0zm-640 0l0 217 150 0c197,0 295,60 295,181 0,52 -16,98 -49,138 -33,40 -115,60 -245,60l-251 0c-29,0 -44,-11 -44,-32 0,-22 15,-32 44,-32l36 0 0 -532 -35 0c-29,0 -43,-11 -43,-32 0,-21 14,-32 43,-32l184 0c29,0 44,11 44,32 0,21 -15,32 -44,32l-85 0zm0 532l147 0c89,0 150,-10 184,-30 34,-20 51,-54 51,-102 0,-45 -18,-77 -54,-94 -35,-17 -96,-25 -183,-25l-145 0 0 251z"></path> <path class="fil0" d="M9521 10133c0,-63 21,-116 64,-160 42,-44 95,-66 157,-66 63,0 117,22 161,66 44,44 65,97 65,160 0,63 -21,116 -65,158 -44,42 -98,64 -161,64 -62,0 -115,-22 -157,-64 -43,-42 -64,-95 -64,-158z"></path> </g> </svg> 